<?xml version="1.0" encoding="UTF-8" standalone="no"?>
<!-- Created with Inkscape (http://www.inkscape.org/) -->

<svg
   width="499.2818mm"
   height="524.13116mm"
   viewBox="0 0 499.28179 524.13117"
   version="1.1"
   id="svg1"
   xml:space="preserve"
   inkscape:version="1.3.2 (091e20e, 2023-11-25, custom)"
   sodipodi:docname="dibujo.svg"
   xmlns:inkscape="http://www.inkscape.org/namespaces/inkscape"
   xmlns:sodipodi="http://sodipodi.sourceforge.net/DTD/sodipodi-0.dtd"
   xmlns="http://www.w3.org/2000/svg"
   xmlns:svg="http://www.w3.org/2000/svg"><sodipodi:namedview
     id="namedview1"
     pagecolor="#ffffff"
     bordercolor="#000000"
     borderopacity="0.25"
     inkscape:showpageshadow="2"
     inkscape:pageopacity="0.0"
     inkscape:pagecheckerboard="0"
     inkscape:deskcolor="#d1d1d1"
     inkscape:document-units="px"
     inkscape:clip-to-page="false"
     inkscape:zoom="0.97890839"
     inkscape:cx="-170.59819"
     inkscape:cy="1680.4433"
     inkscape:window-width="2400"
     inkscape:window-height="1261"
     inkscape:window-x="2391"
     inkscape:window-y="-9"
     inkscape:window-maximized="1"
     inkscape:current-layer="layer1" /><defs
     id="defs1" /><g
     inkscape:label="Capa 1"
     inkscape:groupmode="layer"
     id="layer1"
     transform="translate(-1.0811363,-1.6217044)"><g
       id="g1"
       transform="matrix(1.1800196,0,0,1.1800196,-305.00749,-133.85045)"><path
         fill="#fed531"
         opacity="1"
         stroke="none"
         d="m 434.15796,351.78735 c -10.26587,-18.23303 -9.87399,-37.17181 -4.21179,-55.9761 4.10553,-13.63458 10.31057,-26.62323 15.18545,-40.04303 7.43412,-20.46498 14.54248,-41.04843 21.76154,-61.59131 6.38519,-18.17009 14.13312,-35.64224 27.20035,-50.13072 14.70809,-16.30789 33.26037,-25.73667 55.08526,-26.93806 45.17102,-2.4865 78.05359,18.9622 102.25122,55.34869 6.40314,9.62857 11.65961,20.20593 16.12586,30.8977 9.29675,22.25591 7.40918,44.08043 -5.89795,64.30139 -5.92261,8.99991 -12.46436,17.80192 -19.91516,25.54929 -27.59851,28.69717 -55.93677,56.66513 -87.60169,80.9707 -5.11792,3.9285 -10.80621,7.19785 -16.49774,10.27878 -14.36291,7.77503 -29.63284,9.8989 -45.40479,5.47232 -20.96768,-5.88473 -40.41479,-14.56637 -54.27444,-32.44137 -1.32181,-1.70472 -2.42102,-3.58204 -3.80612,-5.69828 z"
         id="path2" /><path
         fill="#ff8211"
         opacity="1"
         stroke="none"
         d="m 332.25421,545.86157 c -11.3009,-2.40741 -22.65277,-3.4588 -32.85629,-7.44763 -25.90381,-10.12653 -40.4209,-37.43652 -37.97488,-66.27814 2.58969,-30.53491 19.04614,-53.02484 42.35647,-71.13476 17.04382,-13.24146 35.97336,-12.83948 54.83475,-4.75296 31.43585,13.47766 60.70138,30.92633 88.73532,50.46515 20.02066,13.95388 26.43664,33.18762 22.3725,56.72647 -1.6294,9.43719 -3.77533,18.58606 -9.33185,26.56653 -9.57202,13.74768 -23.66559,19.234 -39.53586,19.83026 -11.38886,0.42791 -22.84732,-1.15851 -34.28091,-1.72095 -15.44846,-0.76001 -30.90247,-1.40808 -46.35505,-2.0824 -2.4949,-0.10888 -4.99472,-0.10492 -7.9642,-0.17157 z"
         id="path3" /><path
         fill="#dfb15b"
         opacity="1"
         stroke="none"
         d="m 671.93396,514.8623 c -10.07752,17.72376 -23.7796,30.99775 -42.99866,37.33435 -8.44342,2.78382 -17.45849,4.44318 -26.33154,5.16156 -11.37366,0.9209 -22.96954,1.37531 -34.2785,0.1966 -12.18152,-1.26965 -22.66095,-7.2749 -30.98542,-16.66089 -8.06402,-9.09253 -16.23114,-18.10016 -24.57342,-26.93695 -5.33594,-5.65225 -8.50986,-11.91852 -9.34735,-19.8233 -1.90894,-18.0184 -3.20499,-36.07325 3.83777,-53.19309 9.20629,-22.379 23.38751,-40.79989 47.98193,-47.18304 9.00653,-2.3375 19.20648,-1.74832 28.61261,-0.54492 23.31512,2.98297 45.25604,10.58831 65.60376,22.57486 20.9646,12.34985 29.99927,31.90301 32.44586,54.93328 1.6449,15.48316 -3.36456,29.90937 -9.96704,44.14154 z"
         id="path4" /></g></g></svg>
